Coordinates
version=1
nRows=16
nColumns=42
inDegrees=yes

Units are S.I. units (second, meters, Newtons, ...)
If the header above contains a line with 'inDegrees', this indicates whether rotational values are in degrees (yes) or radians (no).

endheader
time	pelvis_tilt	pelvis_list	pelvis_rotation	pelvis_tx	pelvis_ty	pelvis_tz	hip_flexion_r	hip_adduction_r	hip_rotation_r	knee_angle_r	knee_adduction_r	knee_angle_r_beta	ankle_angle_r	subtalar_angle_r	mtp_angle_r	hip_flexion_l	hip_adduction_l	hip_rotation_l	knee_angle_l	knee_adduction_l	knee_angle_l_beta	ankle_angle_l	subtalar_angle_l	mtp_angle_l	lumbar_extension	lumbar_bending	lumbar_rotation	arm_flex_r	arm_add_r	arm_rot_r	elbow_flex_r	pro_sup_r	wrist_flex_r	wrist_dev_r	arm_flex_l	arm_add_l	arm_rot_l	elbow_flex_l	pro_sup_l	wrist_flex_l	wrist_dev_l
      1.63000000	      5.32495358	     -2.35031095	      2.86241777	     -0.45551530	      0.89038941	      0.08701793	     13.13652600	     -1.67115585	    -20.08614639	     40.52429317	      4.15807240	      0.70728234	     21.30106267	     20.45091923	     -7.51648389	     19.75255355	     -3.07334933	     -5.47398900	     79.03569120	     -8.19690761	      1.37943304	      5.08643615	    -12.07820315	     -7.51648389	    -19.44104675	      5.72413026	     -2.96041448	      2.77191150	     -9.25268717	    -22.58275947	     32.98987985	     90.00000001	      0.00000000	      0.00000000	     -3.46869489	     -6.41596666	    -23.22396044	     41.31594089	     90.00000001	      0.00000000	      0.00000000
      1.64000000	      5.25965632	     -2.22176968	      2.87035358	     -0.44827367	      0.89097983	      0.08746409	     12.39302221	     -1.72016651	    -19.65587192	     40.08156283	      4.53725783	      0.69955524	     22.04253767	     20.70515972	     -7.51616880	     21.59478665	     -2.57938438	     -5.55232093	     79.20852558	     -8.23812410	      1.38244957	      6.02024294	    -12.27202211	     -7.51616880	    -19.49794602	      5.63520821	     -2.90467903	      3.43498580	     -9.48821383	    -21.99393148	     33.48656622	     90.00000001	      0.00000000	      0.00000000	     -3.46593785	     -6.38426150	    -23.19864448	     41.28384468	     90.00000001	      0.00000000	      0.00000000
      1.65000000	      5.30881082	     -2.02836214	      2.71734739	     -0.44110997	      0.89162957	      0.08814778	     11.70373714	     -1.82514520	    -19.53843329	     39.91430030	      4.54159023	      0.69663596	     22.08073862	     20.60212315	     -7.51598235	     23.17789846	     -2.13950003	     -5.66528883	     79.00452202	     -8.04020818	      1.37888903	      6.18993575	    -11.85680585	     -7.51598235	    -19.74334227	      5.41212321	     -2.56771655	      4.14277612	     -9.74057982	    -21.79347285	     33.92828928	     90.00000001	      0.00000000	      0.00000000	     -3.36031903	     -6.31955608	    -23.13025162	     41.40289759	     90.00000001	      0.00000000	      0.00000000
      1.66000000	      5.36427414	     -1.83950098	      2.58099524	     -0.43382778	      0.89227250	      0.08870740	     10.84538721	     -1.94366559	    -19.02083217	     39.47824908	      4.90552206	      0.68902543	     22.99828302	     21.01569941	     -7.51562418	     24.64161762	     -1.65850027	     -5.87851193	     78.43618851	     -7.94008484	      1.36896974	      6.99497352	    -11.70037917	     -7.51562418	    -19.94581935	      5.20438988	     -2.42969302	      4.85221853	    -10.02603438	    -20.89709903	     34.35851785	     90.00000001	      0.00000000	      0.00000000	     -3.37135717	     -6.29739575	    -23.14928321	     41.34767285	     90.00000001	      0.00000000	      0.00000000
      1.67000000	      5.44993984	     -1.63849070	      2.37986388	     -0.42651832	      0.89280983	      0.08935489	     10.09931664	     -2.08996846	    -19.21061852	     39.29117028	      4.72143489	      0.68576029	     23.53555544	     22.19741398	     -7.51420418	     25.97160717	     -1.25187499	     -6.29670198	     77.52292457	     -7.90105607	      1.35303028	      7.41497789	    -10.77825944	     -7.51420418	    -20.18834709	      4.95177258	     -2.19238071	      5.18540184	    -10.93210387	    -17.18944440	     34.95183526	     90.00000001	      0.00000000	      0.00000000	     -3.29693683	     -6.15800473	    -23.47598128	     41.36078544	     90.00000001	      0.00000000	      0.00000000
      1.68000000	      5.46956347	     -1.47931268	      2.16225113	     -0.41925802	      0.89324674	      0.09005893	      9.41064732	     -2.14520556	    -18.97436906	     39.02908604	      4.75167445	      0.68118606	     23.63583753	     22.08285914	     -7.51398398	     27.26872169	     -0.89010976	     -6.39202895	     76.32372390	     -7.51492003	      1.33210028	      7.56563180	    -10.45402615	     -7.51398398	    -20.35560243	      4.76472463	     -1.93160319	      5.93111929	    -11.09661384	    -17.01195076	     35.40104938	     90.00000001	      0.00000000	      0.00000000	     -3.37344217	     -6.09880474	    -23.43117122	     41.43073794	     90.00000001	      0.00000000	      0.00000000
      1.69000000	      5.59967822	     -1.33604734	      1.91250896	     -0.41191353	      0.89371744	      0.09079316	      8.56735587	     -2.26255239	    -18.87196849	     38.76243020	      4.85137134	      0.67653203	     24.21663783	     22.82910810	     -7.51290521	     28.29485492	     -0.62971127	     -6.67224570	     74.75306013	     -7.22763255	      1.30468703	      7.82644101	    -10.09430413	     -7.51290521	    -20.63776691	      4.56693688	     -1.70911888	      6.70507737	    -11.55327525	    -15.66789407	     35.66782857	     90.00000001	      0.00000000	      0.00000000	     -3.40902669	     -6.00325548	    -23.62682375	     41.49017183	     90.00000001	      0.00000000	      0.00000000
      1.70000000	      5.71052822	     -1.17256390	      1.62282253	     -0.40454956	      0.89409943	      0.09164586	      7.73872284	     -2.37860672	    -18.68134088	     38.46597385	      4.95240789	      0.67135789	     24.47251282	     22.93398497	     -7.51262032	     29.21820959	     -0.40045391	     -6.82275333	     72.92001788	     -6.72530545	      1.27269440	      7.97205663	     -9.83239146	     -7.51262032	    -20.89193188	      4.31549181	     -1.43627766	      7.53885670	    -11.67175097	    -15.36054886	     36.05137617	     90.00000001	      0.00000000	      0.00000000	     -3.46629377	     -5.96450160	    -23.62795398	     41.53139773	     90.00000001	      0.00000000	      0.00000000
      1.71000000	      5.65937860	     -1.09257845	      1.29437411	     -0.39723875	      0.89415171	      0.09246858	      7.19125949	     -2.34895672	    -18.55218409	     38.26629247	      4.81952449	      0.66787280	     24.53462895	     22.94226224	     -7.51243737	     30.22564999	     -0.30157337	     -6.96772968	     70.83676710	     -6.18524257	      1.23633482	      8.03395139	     -9.52138631	     -7.51243737	    -20.94817513	      4.19589869	     -1.13935311	      8.30244035	    -11.82929437	    -15.15934315	     36.43085490	     90.00000001	      0.00000000	      0.00000000	     -3.60392869	     -5.84683255	    -23.60258876	     41.57000686	     90.00000001	      0.00000000	      0.00000000
      1.72000000	      5.86617795	     -0.93895349	      0.96312544	     -0.38966939	      0.89447117	      0.09328019	      6.21371784	     -2.56643558	    -18.86662242	     37.94910158	      4.74372920	      0.66233677	     25.17884067	     24.75826477	     -7.51157574	     30.75498277	     -0.18924942	     -7.49800321	     68.39780763	     -5.91605331	      1.19376694	      8.31827905	     -9.03862660	     -7.51157574	    -21.28158402	      3.96557152	     -0.98129600	      9.23355226	    -12.21391139	    -13.56719376	     36.38358651	     90.00000001	      0.00000000	      0.00000000	     -3.67650076	     -5.80337626	    -24.10730195	     41.53926035	     90.00000001	      0.00000000	      0.00000000
      1.73000000	      5.96096863	     -0.86870053	      0.64591148	     -0.38214924	      0.89452612	      0.09408949	      5.39718392	     -2.68036841	    -18.81841874	     37.71117240	      4.88849678	      0.65818412	     25.39934235	     24.93715278	     -7.51131727	     31.30410068	     -0.19064048	     -7.77237660	     65.75673014	     -5.41486649	      1.14767145	      8.47055046	     -8.69939266	     -7.51131727	    -21.47815510	      3.82824369	     -0.76720654	     10.03211604	    -12.30844783	    -13.20685224	     36.71041228	     90.00000001	      0.00000000	      0.00000000	     -3.80466652	     -5.65069735	    -24.13894867	     41.52532280	     90.00000001	      0.00000000	      0.00000000
      1.74000000	      6.06123850	     -0.80038044	      0.28249122	     -0.37448716	      0.89445820	      0.09489186	      4.58626167	     -2.82908464	    -19.20760731	     37.49215372	      4.74779548	      0.65436153	     25.85773339	     26.52715127	     -7.51057083	     31.73495442	     -0.28245667	     -8.61981146	     62.88501427	     -5.32830553	      1.09755055	      8.93728928	     -7.45274620	     -7.51057083	    -21.64833994	      3.69664688	     -0.60554719	     10.92969769	    -12.59188252	    -11.81415861	     36.65496338	     90.00000001	      0.00000000	      0.00000000	     -3.92055845	     -5.48642726	    -24.65879939	     41.40175045	     90.00000001	      0.00000000	      0.00000000
      1.75000000	      6.15310400	     -0.77974313	     -0.08733969	     -0.36680748	      0.89428945	      0.09573319	      3.74587113	     -2.91323961	    -19.26954459	     37.20718557	      4.82225100	      0.64938789	     26.15021097	     27.28289720	     -7.50994415	     32.06451012	     -0.45393710	     -9.39426647	     59.86010105	     -5.14812153	      1.04475585	      9.43677190	     -6.18840589	     -7.50994415	    -21.80796787	      3.60638069	     -0.40436884	     11.72672450	    -12.73067806	    -10.90487957	     36.86694808	     90.00000001	      0.00000000	      0.00000000	     -4.07486097	     -5.35055735	    -24.98943866	     41.29649526	     90.00000001	      0.00000000	      0.00000000
      1.76000000	      6.23182652	     -0.76947971	     -0.42964327	     -0.35915210	      0.89401109	      0.09645649	      2.88998845	     -3.03250813	    -19.18392017	     36.90832852	      5.07591464	      0.64417185	     26.30308366	     27.43670990	     -7.50971099	     32.28859462	     -0.62723179	     -9.88696105	     56.72252142	     -4.70428140	      0.98999476	      9.69750234	     -5.48651539	     -7.50971099	    -21.97222448	      3.55427435	     -0.26352148	     12.53544741	    -12.78866508	    -10.56808743	     37.18937276	     90.00000001	      0.00000000	      0.00000000	     -4.26985092	     -5.24897250	    -25.06610781	     41.21256575	     90.00000001	      0.00000000	      0.00000000
      1.77000000	      6.31197622	     -0.81271197	     -0.81978219	     -0.35122252	      0.89354549	      0.09726719	      2.04934853	     -3.09392378	    -19.46223510	     36.65100961	      5.04796337	      0.63968079	     26.66444592	     28.80773603	     -7.50900495	     32.44976909	     -1.00276504	    -11.50483945	     53.47648831	     -5.04428087	      0.93334079	     10.84114005	     -2.07281604	     -7.50900495	    -22.07099318	      3.53301584	     -0.13291812	     13.37814758	    -12.96135457	     -9.21299646	     37.12341326	     90.00000001	      0.00000000	      0.00000000	     -4.39096116	     -5.05109346	    -25.71911441	     40.93126661	     90.00000001	      0.00000000	      0.00000000
      1.78000000	      6.22142928	     -0.90886451	     -1.18681092	     -0.34359809	      0.89278778	      0.09804580	      1.46208152	     -3.00082338	    -19.26096717	     36.41689006	      5.14188632	      0.63559463	     26.72505860	     28.70363800	     -7.50885763	     32.72794023	     -1.30014739	    -11.91751244	     50.30909162	     -4.54655469	      0.87805929	     10.95295369	     -1.52358168	     -7.50885763	    -22.03945493	      3.58731140	      0.04812807	     14.12833502	    -12.91760570	     -8.99770296	     37.52551570	     90.00000001	      0.00000000	      0.00000000	     -4.64011671	     -4.97099346	    -25.74434161	     40.86310192	     90.00000001	      0.00000000	      0.00000000
